<svg xmlns="http://www.w3.org/2000/svg" xmlns:xlink="http://www.w3.org/1999/xlink" fill="none" version="1.1" width="11.985076904296875" height="14" viewBox="0 0 11.985076904296875 14"><g transform="matrix(1,0,0,-1,0,28)"><g><path d="M5.99254,28Q5.61809,28,5.37737,27.7539Q5.13664,27.5078,5.13664,27.125L5.13664,26.6055Q3.63883,26.2773,2.70269,25.101599999999998Q1.73981,23.92578,1.71306,22.3125L1.71306,21.79297Q1.68632,19.82422,0.429221,18.32031L0.215247,18.07422Q-0.13246,17.66406,0.0815138,17.14453Q0.322234,16.65234,0.857169,16.625L11.1279,16.625Q11.6628,16.65234,11.9036,17.14453Q12.1175,17.66406,11.7698,18.07422L11.5826,18.32031Q10.2988,19.79687,10.272,21.79297L10.272,22.3125Q10.2453,23.92578,9.28239,25.101599999999998Q8.34625,26.2773,6.84843,26.6055L6.84843,27.125Q6.84843,27.5078,6.60771,27.7539Q6.36699,28,5.99254,28ZM7.19614,14.519531Q7.70433,15.03906,7.70433,15.75L5.99254,15.75L4.28075,15.75Q4.28075,15.03906,4.78894,14.519531Q5.29713,14,5.99254,14Q6.68796,14,7.19614,14.519531Z" fill="#FFFFFF" fill-opacity="1" style="mix-blend-mode:passthrough"/></g></g></svg>