<svg xmlns="http://www.w3.org/2000/svg" xmlns:xlink="http://www.w3.org/1999/xlink" fill="none" version="1.1" width="32" height="32" viewBox="0 0 32 32"><defs><clipPath id="master_svg0_7_402"><rect x="6" y="8" width="20" height="16" rx="0"/></clipPath></defs><g><rect x="0" y="0" width="32" height="32" rx="0" fill="#000000" fill-opacity="0" style="mix-blend-mode:passthrough"/><g><rect x="0" y="0" width="32" height="32" rx="16" fill="#000000" fill-opacity="1" style="mix-blend-mode:passthrough"/><g clip-path="url(#master_svg0_7_402)"><g transform="matrix(1,0,0,-1,0,48.6875)"><g><path d="M16,40.34375Q16.4375,40.34375,16.7188,40.06255Q17,39.78125,17,39.34375L17,37.34375L20.75,37.34375Q21.7188,37.31255,22.3438,36.68755Q22.9688,36.06255,23,35.09375L23,26.59375Q22.9688,25.625,22.3438,25Q21.7188,24.375,20.75,24.34375L11.25,24.34375Q10.28125,24.375,9.65625,25Q9.03125,25.625,9,26.59375L9,35.09375Q9.03125,36.06255,9.65625,36.68755Q10.28125,37.31255,11.25,37.34375L15,37.34375L15,39.34375Q15,39.78125,15.28125,40.06255Q15.5625,40.34375,16,40.34375ZM12.5,28.34375Q12.03125,28.3125,12,27.84375Q12.03125,27.375,12.5,27.34375L13.5,27.34375Q13.96875,27.375,14,27.84375Q13.96875,28.3125,13.5,28.34375L12.5,28.34375ZM15.5,28.34375Q15.03125,28.3125,15,27.84375Q15.03125,27.375,15.5,27.34375L16.5,27.34375Q16.9688,27.375,17,27.84375Q16.9688,28.3125,16.5,28.34375L15.5,28.34375ZM18.5,28.34375Q18.0312,28.3125,18,27.84375Q18.0312,27.375,18.5,27.34375L19.5,27.34375Q19.9688,27.375,20,27.84375Q19.9688,28.3125,19.5,28.34375L18.5,28.34375ZM14.25,32.34375Q14.21875,33.0625,13.625,33.4375Q13,33.75,12.375,33.4375Q11.78125,33.0625,11.75,32.34375Q11.78125,31.625,12.375,31.25Q13,30.9375,13.625,31.25Q14.21875,31.625,14.25,32.34375ZM19,31.09375Q19.7188,31.125,20.0938,31.71875Q20.4062,32.34375,20.0938,32.96875Q19.7188,33.5625,19,33.59375Q18.2812,33.5625,17.9062,32.96875Q17.5938,32.34375,17.9062,31.71875Q18.2812,31.125,19,31.09375ZM7.5,33.34375L8,33.34375L7.5,33.34375L8,33.34375L8,27.34375L7.5,27.34375Q6.875,27.375,6.4375,27.78125Q6.03125,28.21875,6,28.84375L6,31.84375Q6.03125,32.46875,6.4375,32.90625Q6.875,33.3125,7.5,33.34375ZM24.5,33.34375Q25.125,33.3125,25.5625,32.90625Q25.9688,32.46875,26,31.84375L26,28.84375Q25.9688,28.21875,25.5625,27.78125Q25.125,27.375,24.5,27.34375L24,27.34375L24,33.34375L24.5,33.34375Z" fill="#FFFFFF" fill-opacity="1" style="mix-blend-mode:passthrough"/></g></g></g></g></g></svg>