<svg xmlns="http://www.w3.org/2000/svg" xmlns:xlink="http://www.w3.org/1999/xlink" fill="none" version="1.1" width="16" height="16" viewBox="0 0 16 16"><defs><clipPath id="master_svg0_7_387"><rect x="0" y="0" width="16" height="16" rx="0"/></clipPath></defs><g clip-path="url(#master_svg0_7_387)"><g transform="matrix(1,0,0,-1,0,32.70166015625)"><g><path d="M15.5019,32.170430078125Q16,31.826730078125,15.9377,31.201730078125L13.9455,18.201680078125Q13.8521,17.732930078125,13.4475,17.482930078125Q13.0117,17.264182078125,12.5759,17.451680078125L8.84047,18.982930078125L6.72374,16.670432078125Q6.22568,16.201682078125,5.60311,16.420432378125Q5.01167,16.701682078125,4.98054,17.357930078125L4.98054,19.982930078125Q4.98054,20.170430078125,5.10506,20.295430078125L10.3346,26.014180078125Q10.5837,26.357930078125,10.3035,26.701730078125Q9.99222,26.982930078125,9.61868,26.732930078125L3.29961,21.076680078125L0.560311,22.451680078125Q0.0311284,22.732930078125,0,23.326680078125Q0,23.920430078125,0.498054,24.232930078125L14.4436,32.232930078125Q15.0039,32.514230078124996,15.5019,32.170430078125Z" fill="#FFFFFF" fill-opacity="1" style="mix-blend-mode:passthrough"/></g></g></g></svg>